<svg width="30" height="30" viewBox="0 0 30 30" fill="none" xmlns="http://www.w3.org/2000/svg">
<path d="M15 29.25C22.8701 29.25 29.25 22.8701 29.25 15C29.25 7.12994 22.8701 0.75 15 0.75C7.12994 0.75 0.75 7.12994 0.75 15C0.75 22.8701 7.12994 29.25 15 29.25Z" stroke="white" stroke-width="1.5"/>
<path d="M21.1531 9.2419C21.0157 9.12325 20.8484 9.04446 20.6694 9.01405C20.4904 8.98365 20.3065 9.00279 20.1376 9.06941L8.63258 13.5893C8.43208 13.6681 8.26248 13.8097 8.14915 13.9929C8.03583 14.1761 7.98487 14.3911 8.0039 14.6057C8.02293 14.8203 8.11093 15.0229 8.25473 15.1833C8.39853 15.3438 8.5904 15.4533 8.80165 15.4956L11.724 16.0802V19.7303C11.7238 19.9276 11.7822 20.1206 11.8918 20.2847C12.0014 20.4489 12.1572 20.5768 12.3395 20.6523C12.5218 20.7278 12.7224 20.7476 12.916 20.709C13.1095 20.6704 13.2872 20.5753 13.4267 20.4356L15.044 18.8183L17.4986 20.9784C17.6793 21.1389 17.9125 21.2277 18.1542 21.228C18.2593 21.2279 18.3637 21.2113 18.4636 21.1789C18.6285 21.1266 18.7767 21.032 18.8936 20.9046C19.0105 20.7771 19.0919 20.6212 19.1297 20.4524L21.4745 10.2207C21.5153 10.0437 21.507 9.85901 21.4503 9.68648C21.3937 9.51396 21.2909 9.36024 21.1531 9.24196V9.2419ZM12.1071 15.1396L8.99739 14.5176L17.7049 11.0967L12.1071 15.1396ZM12.7214 19.7298V16.7745L14.2936 18.1579L12.7214 19.7298ZM18.1575 20.2296L13.0213 15.7097L20.4174 10.368L18.1575 20.2296Z" fill="white"/>
</svg>
